<svg width="145" height="145" viewBox="0 0 145 145" fill="none" xmlns="http://www.w3.org/2000/svg">
<circle cx="72.5" cy="72.5" r="71" stroke="#232323" stroke-width="3" stroke-linejoin="round"/>
<g filter="url(#filter0_i)">
<path d="M65.2461 79.0171C65.2461 82.0822 65.3158 84.5029 65.4551 86.2793C65.6292 88.0557 65.873 89.3966 66.1865 90.3022C66.5348 91.2078 66.9702 91.7826 67.4927 92.0264C68.0151 92.2702 68.6247 92.3921 69.3213 92.3921C70.2617 92.3921 71.237 92.096 72.2471 91.5039C73.2572 90.9118 74.2498 90.1455 75.2251 89.2051C76.2004 88.2646 77.1234 87.2197 77.9941 86.0703C78.8997 84.9209 79.7183 83.8063 80.4497 82.7266C81.216 81.612 81.8604 80.5845 82.3828 79.644C82.9401 78.6688 83.3581 77.9199 83.6367 77.3975L85.2563 74.1582L87.3984 75.7778L85.7788 79.0171C85.5002 79.5396 85.0474 80.3929 84.4204 81.5771C83.7935 82.7266 83.0098 84.0153 82.0693 85.4434C81.1289 86.8366 80.0666 88.2995 78.8823 89.832C77.6981 91.3298 76.4268 92.7056 75.0684 93.9595C73.71 95.2134 72.2819 96.2409 70.7842 97.042C69.2865 97.8431 67.7539 98.2437 66.1865 98.2437C64.7585 98.2437 63.4871 97.9998 62.3726 97.5122C61.258 97.0246 60.3175 96.1712 59.5513 94.9521C58.785 93.6982 58.1929 92.009 57.7749 89.8843C57.3918 87.7248 57.2002 84.9906 57.2002 81.6816C57.2002 80.3929 57.2176 79.1738 57.2524 78.0244C57.3221 76.8402 57.4092 75.4121 57.5137 73.7402C55.7373 77.1885 53.6823 80.5148 51.3486 83.7192C49.0498 86.9237 46.5768 89.7624 43.9297 92.2354C41.2826 94.7083 38.5135 96.6763 35.6226 98.1392C32.7664 99.6369 29.8755 100.386 26.9497 100.386C25.1037 100.386 23.3447 100.055 21.6729 99.3931C20.001 98.7313 18.5207 97.7212 17.2319 96.3628C15.9432 94.9696 14.9157 93.1932 14.1494 91.0337C13.3831 88.8742 13 86.2967 13 83.3013C13 78.4946 13.5399 73.7751 14.6196 69.1426C15.6646 64.5101 17.1274 60.0343 19.0083 55.7153C20.8892 51.3615 23.1009 47.2166 25.6436 43.2808C28.1862 39.3101 30.9204 35.6354 33.8462 32.2568C36.772 28.8783 39.8371 25.8306 43.0415 23.1138C46.2459 20.3621 49.4504 18.0111 52.6548 16.0605C55.8592 14.11 58.9766 12.6123 62.0068 11.5674C65.0719 10.5225 67.9281 10 70.5752 10C73.501 10 75.8346 10.7489 77.5762 12.2466C79.3177 13.7095 80.1885 15.7993 80.1885 18.5161C80.1885 20.3273 79.8228 22.1037 79.0913 23.8452C78.3947 25.5519 77.4543 27.2064 76.27 28.8086C75.1206 30.376 73.797 31.8737 72.2993 33.3018C70.8364 34.695 69.3561 35.9663 67.8584 37.1157C66.3607 38.2303 64.8978 39.223 63.4697 40.0938C62.0765 40.9297 60.8748 41.5915 59.8647 42.0791L58.2974 39.937C59.1681 39.4842 60.1608 38.8573 61.2754 38.0562C62.4248 37.255 63.5742 36.3146 64.7236 35.2349C65.873 34.1551 66.9876 32.9709 68.0674 31.6821C69.182 30.3586 70.1746 28.9827 71.0454 27.5547C71.9162 26.0918 72.6128 24.5941 73.1353 23.0615C73.6577 21.4941 73.9189 19.9442 73.9189 18.4116C73.9189 16.9139 73.5184 15.6774 72.7173 14.7021C71.951 13.6921 70.6971 13.187 68.9556 13.187C66.9006 13.187 64.6714 13.7269 62.2681 14.8066C59.8647 15.8516 57.3918 17.3493 54.8491 19.2998C52.3065 21.2503 49.7464 23.584 47.1689 26.3008C44.6263 28.9827 42.1707 31.9608 39.8022 35.2349C37.4338 38.4741 35.222 41.9572 33.167 45.6841C31.1468 49.3761 29.3704 53.2249 27.8379 57.2305C26.3402 61.2012 25.1559 65.259 24.2852 69.4038C23.4144 73.5138 22.979 77.6064 22.979 81.6816C22.979 83.5625 23.1183 85.304 23.397 86.9062C23.6756 88.4736 24.1284 89.832 24.7554 90.9814C25.3823 92.096 26.2008 92.9668 27.2109 93.5938C28.221 94.2207 29.4749 94.5342 30.9727 94.5342C32.8535 94.5342 34.6995 94.1162 36.5107 93.2803C38.3219 92.4095 40.0809 91.2427 41.7876 89.7798C43.4943 88.3169 45.1313 86.6102 46.6987 84.6597C48.3009 82.7091 49.7987 80.6193 51.1919 78.3901C52.5851 76.161 53.8739 73.8796 55.0581 71.5459C56.2772 69.1774 57.3569 66.8438 58.2974 64.5449C58.5412 61.9326 58.8198 59.4422 59.1333 57.0737C59.4468 54.6704 59.7603 52.5283 60.0737 50.6475C60.3872 48.7666 60.6833 47.2166 60.9619 45.9976C61.2406 44.7437 61.4844 43.9774 61.6934 43.6987C61.8327 43.4549 62.1287 43.1763 62.5815 42.8628C63.0343 42.5493 63.5394 42.2707 64.0967 42.0269C64.6888 41.7482 65.2809 41.5218 65.873 41.3477C66.4652 41.1387 66.9702 41.0342 67.3882 41.0342C68.4331 41.0342 68.9556 41.5566 68.9556 42.6016C68.9556 43.5768 68.8859 44.7088 68.7466 45.9976C68.6073 47.2863 68.4157 48.6273 68.1719 50.0205C67.9281 51.4137 67.632 52.8244 67.2837 54.2524C66.9702 55.6457 66.6045 56.9344 66.1865 58.1187C65.9079 61.9152 65.6815 65.5724 65.5073 69.0903C65.3332 72.5734 65.2461 75.8823 65.2461 79.0171Z" fill="black"/>
</g>
<g filter="url(#filter1_i)">
<path d="M112.603 63.4219C113.404 62.8298 114.118 62.1157 114.745 61.2798C115.406 60.4438 115.964 59.5382 116.417 58.563C116.869 57.5877 117.218 56.5602 117.461 55.4805C117.705 54.4007 117.827 53.3035 117.827 52.189C117.827 50.5171 117.531 48.8626 116.939 47.2256C116.382 45.5537 115.459 44.056 114.17 42.7324C112.916 41.374 111.279 40.2769 109.259 39.4409C107.239 38.605 104.783 38.187 101.892 38.187C98.6877 38.187 95.6574 38.7095 92.8013 39.7544C89.9451 40.7993 87.4373 42.21 85.2778 43.9863C83.1532 45.7627 81.4639 47.8177 80.21 50.1514C78.9561 52.485 78.3291 54.9232 78.3291 57.4658C78.3291 60.1478 78.9561 62.5337 80.21 64.6235C81.4987 66.6785 83.1706 68.5594 85.2256 70.2661C87.3154 71.938 89.6839 73.488 92.3311 74.916C94.9782 76.3441 97.6776 77.7547 100.429 79.1479C103.181 80.5412 105.88 82.0041 108.527 83.5366C111.174 85.0343 113.526 86.7236 115.581 88.6045C117.67 90.4854 119.342 92.5926 120.596 94.9263C121.885 97.2599 122.529 99.9593 122.529 103.024C122.529 105.95 121.833 108.754 120.439 111.436C119.046 114.118 117.131 116.504 114.692 118.594C112.254 120.649 109.381 122.286 106.072 123.505C102.798 124.759 99.2624 125.386 95.4658 125.386C91.2165 125.386 87.6986 124.916 84.9121 123.975C82.1605 123.069 79.9661 121.92 78.3291 120.527C76.7269 119.134 75.6123 117.636 74.9854 116.034C74.3584 114.397 74.0449 112.882 74.0449 111.488C74.0449 109.782 74.3062 108.249 74.8286 106.891C75.3859 105.497 76.1174 104.261 77.0229 103.181C77.9285 102.067 78.9386 101.109 80.0532 100.308C81.2026 99.4717 82.3695 98.7751 83.5537 98.2178C84.7728 97.6257 85.9396 97.1554 87.0542 96.8071C88.2036 96.424 89.2311 96.1453 90.1367 95.9712L90.6592 98.6357C90.2412 98.7751 89.4749 99.1234 88.3604 99.6807C87.2806 100.203 86.1486 100.987 84.9644 102.032C83.7801 103.042 82.7352 104.313 81.8296 105.846C80.924 107.378 80.4712 109.189 80.4712 111.279C80.4712 112.707 80.7673 114.101 81.3594 115.459C81.9863 116.817 82.9093 118.036 84.1284 119.116C85.3475 120.196 86.8452 121.067 88.6216 121.729C90.3979 122.39 92.4704 122.721 94.8389 122.721C97.695 122.721 100.185 122.46 102.31 121.938C104.47 121.38 106.316 120.666 107.848 119.795C109.416 118.925 110.687 117.932 111.662 116.817C112.672 115.668 113.456 114.484 114.013 113.265C114.605 112.046 115.006 110.844 115.215 109.66C115.459 108.441 115.581 107.343 115.581 106.368C115.581 103.721 114.971 101.405 113.752 99.4194C112.533 97.3993 110.913 95.6055 108.893 94.0381C106.908 92.4359 104.644 90.9904 102.101 89.7017C99.5584 88.3781 96.9461 87.0719 94.2642 85.7832C91.617 84.4945 89.0221 83.1535 86.4795 81.7603C83.9368 80.367 81.6554 78.7822 79.6353 77.0059C77.6499 75.2295 76.0477 73.2093 74.8286 70.9453C73.6095 68.6465 73 65.9645 73 62.8994C73 58.7894 73.8534 55.0277 75.5601 51.6143C77.2668 48.166 79.5656 45.2228 82.4565 42.7847C85.3475 40.3117 88.6912 38.396 92.4878 37.0376C96.3192 35.6792 100.342 35 104.557 35C108.144 35 111.209 35.418 113.752 36.2539C116.295 37.0898 118.367 38.187 119.969 39.5454C121.606 40.9038 122.791 42.4538 123.522 44.1953C124.288 45.9368 124.671 47.7132 124.671 49.5244C124.671 51.6839 124.288 53.6519 123.522 55.4282C122.791 57.2046 121.885 58.7894 120.805 60.1826C119.76 61.541 118.628 62.6904 117.409 63.6309C116.19 64.5365 115.11 65.1808 114.17 65.564L112.603 63.4219Z" fill="black"/>
</g>
<defs>
<filter id="filter0_i" x="10" y="10" width="77.3984" height="90.3857" filterUnits="userSpaceOnUse" color-interpolation-filters="sRGB">
<feFlood flood-opacity="0" result="BackgroundImageFix"/>
<feBlend mode="normal" in="SourceGraphic" in2="BackgroundImageFix" result="shape"/>
<feColorMatrix in="SourceAlpha" type="matrix" values="0 0 0 0 0 0 0 0 0 0 0 0 0 0 0 0 0 0 127 0" result="hardAlpha"/>
<feOffset dx="-3"/>
<feGaussianBlur stdDeviation="2"/>
<feComposite in2="hardAlpha" operator="arithmetic" k2="-1" k3="1"/>
<feColorMatrix type="matrix" values="0 0 0 0 1 0 0 0 0 1 0 0 0 0 1 0 0 0 0.27 0"/>
<feBlend mode="normal" in2="shape" result="effect1_innerShadow"/>
</filter>
<filter id="filter1_i" x="73" y="35" width="51.6714" height="94.3857" filterUnits="userSpaceOnUse" color-interpolation-filters="sRGB">
<feFlood flood-opacity="0" result="BackgroundImageFix"/>
<feBlend mode="normal" in="SourceGraphic" in2="BackgroundImageFix" result="shape"/>
<feColorMatrix in="SourceAlpha" type="matrix" values="0 0 0 0 0 0 0 0 0 0 0 0 0 0 0 0 0 0 127 0" result="hardAlpha"/>
<feOffset dy="4"/>
<feGaussianBlur stdDeviation="2"/>
<feComposite in2="hardAlpha" operator="arithmetic" k2="-1" k3="1"/>
<feColorMatrix type="matrix" values="0 0 0 0 1 0 0 0 0 1 0 0 0 0 1 0 0 0 0.27 0"/>
<feBlend mode="normal" in2="shape" result="effect1_innerShadow"/>
</filter>
</defs>
</svg>
